<svg width="166" height="166" viewBox="0 0 166 166" fill="none" xmlns="http://www.w3.org/2000/svg">
<path fill-rule="evenodd" clip-rule="evenodd" d="M83 3.8147e-06C128.816 3.8147e-06 166 37.184 166 83C166 128.816 128.816 166 83 166C37.184 166 0 128.816 0 83C0 37.184 37.184 3.8147e-06 83 3.8147e-06Z" fill="url(#paint0_linear)"/>
<g filter="url(#filter0_di)">
<path fill-rule="evenodd" clip-rule="evenodd" d="M83 21C117.223 21 145 48.7763 145 83C145 117.224 117.223 145 83 145C48.7772 145 21 117.224 21 83C21 48.7763 48.7772 21 83 21Z" fill="#002634"/>
</g>
<g filter="url(#filter1_d)">
<path fill-rule="evenodd" clip-rule="evenodd" d="M52 99.9286C52 83.9524 52.0092 67.9762 52.0138 52H72.6667C72.6667 63.0335 72.6667 89.8131 72.6667 89.8131C72.6667 100.269 77.296 104.142 83 104.142C88.704 104.142 93.3333 100.269 93.3333 89.8131V52H114L113.979 99.9425C113.979 118.248 100.091 125 83 125C65.888 125 52 118.234 52 99.9286Z" fill="url(#paint1_linear)"/>
</g>
<defs>
<filter id="filter0_di" x="20" y="21" width="126" height="127" filterUnits="userSpaceOnUse" color-interpolation-filters="sRGB">
<feFlood flood-opacity="0" result="BackgroundImageFix"/>
<feColorMatrix in="SourceAlpha" type="matrix" values="0 0 0 0 0 0 0 0 0 0 0 0 0 0 0 0 0 0 127 0"/>
<feOffset dy="2"/>
<feGaussianBlur stdDeviation="0.5"/>
<feColorMatrix type="matrix" values="0 0 0 0 1 0 0 0 0 1 0 0 0 0 1 0 0 0 0.35 0"/>
<feBlend mode="normal" in2="BackgroundImageFix" result="effect1_dropShadow"/>
<feBlend mode="normal" in="SourceGraphic" in2="effect1_dropShadow" result="shape"/>
<feColorMatrix in="SourceAlpha" type="matrix" values="0 0 0 0 0 0 0 0 0 0 0 0 0 0 0 0 0 0 127 0" result="hardAlpha"/>
<feOffset dy="2"/>
<feGaussianBlur stdDeviation="1"/>
<feComposite in2="hardAlpha" operator="arithmetic" k2="-1" k3="1"/>
<feColorMatrix type="matrix" values="0 0 0 0 0 0 0 0 0 0 0 0 0 0 0 0 0 0 0.65 0"/>
<feBlend mode="normal" in2="shape" result="effect2_innerShadow"/>
</filter>
<filter id="filter1_d" x="50" y="52" width="66" height="77" filterUnits="userSpaceOnUse" color-interpolation-filters="sRGB">
<feFlood flood-opacity="0" result="BackgroundImageFix"/>
<feColorMatrix in="SourceAlpha" type="matrix" values="0 0 0 0 0 0 0 0 0 0 0 0 0 0 0 0 0 0 127 0"/>
<feOffset dy="2"/>
<feGaussianBlur stdDeviation="1"/>
<feColorMatrix type="matrix" values="0 0 0 0 0 0 0 0 0 0 0 0 0 0 0 0 0 0 0.65 0"/>
<feBlend mode="normal" in2="BackgroundImageFix" result="effect1_dropShadow"/>
<feBlend mode="normal" in="SourceGraphic" in2="effect1_dropShadow" result="shape"/>
</filter>
<linearGradient id="paint0_linear" x1="83" y1="13.8333" x2="83.0104" y2="165.972" gradientUnits="userSpaceOnUse">
<stop stop-color="#6CE1E4"/>
<stop offset="1" stop-color="#009B9F"/>
</linearGradient>
<linearGradient id="paint1_linear" x1="83" y1="58.0849" x2="83.0035" y2="124.986" gradientUnits="userSpaceOnUse">
<stop stop-color="#6CE1E4"/>
<stop offset="1" stop-color="#009B9F"/>
</linearGradient>
</defs>
</svg>
